<svg width="551" height="256" viewBox="0 0 551 256" fill="none" xmlns="http://www.w3.org/2000/svg">
<g filter="url(#filter0_d_3509_6022)">
<circle cx="128" cy="124" r="64" fill="#2B2B2B"/>
<path fill-rule="evenodd" clip-rule="evenodd" d="M170.32 129.345C178.414 122.205 184.688 113.051 188.358 102.667C190.717 109.339 192 116.52 192 124C192 159.346 163.346 188 128 188C92.6538 188 64 159.346 64 124C64 116.52 65.2833 109.34 67.6416 102.667C71.312 113.051 77.5862 122.205 85.6797 129.345L98.7698 116.255L128 87.0244L157.231 116.255L170.32 129.345Z" fill="url(#paint0_linear_3509_6022)"/>
</g>
<path d="M209.503 172.999V147.624H225.759V151.477H214.1V158.366H224.644V162.219H214.1V172.999H209.503ZM236.653 173.371C234.795 173.371 233.184 172.962 231.821 172.144C230.458 171.326 229.401 170.182 228.649 168.712C227.906 167.242 227.534 165.523 227.534 163.558C227.534 161.592 227.906 159.869 228.649 158.391C229.401 156.912 230.458 155.764 231.821 154.946C233.184 154.128 234.795 153.72 236.653 153.72C238.512 153.72 240.123 154.128 241.486 154.946C242.848 155.764 243.902 156.912 244.645 158.391C245.397 159.869 245.773 161.592 245.773 163.558C245.773 165.523 245.397 167.242 244.645 168.712C243.902 170.182 242.848 171.326 241.486 172.144C240.123 172.962 238.512 173.371 236.653 173.371ZM236.678 169.778C237.686 169.778 238.528 169.501 239.206 168.947C239.883 168.386 240.387 167.634 240.717 166.692C241.056 165.751 241.225 164.702 241.225 163.545C241.225 162.38 241.056 161.327 240.717 160.386C240.387 159.436 239.883 158.68 239.206 158.118C238.528 157.556 237.686 157.276 236.678 157.276C235.646 157.276 234.786 157.556 234.101 158.118C233.424 158.68 232.916 159.436 232.577 160.386C232.246 161.327 232.081 162.38 232.081 163.545C232.081 164.702 232.246 165.751 232.577 166.692C232.916 167.634 233.424 168.386 234.101 168.947C234.786 169.501 235.646 169.778 236.678 169.778ZM261.71 164.995V153.967H266.195V172.999H261.846V169.616H261.648C261.218 170.682 260.512 171.553 259.529 172.231C258.554 172.908 257.352 173.247 255.923 173.247C254.676 173.247 253.573 172.97 252.615 172.417C251.665 171.855 250.922 171.041 250.385 169.976C249.848 168.902 249.58 167.605 249.58 166.085V153.967H254.065V165.391C254.065 166.597 254.395 167.556 255.056 168.266C255.717 168.976 256.584 169.331 257.658 169.331C258.319 169.331 258.959 169.17 259.579 168.848C260.198 168.526 260.706 168.047 261.103 167.411C261.507 166.767 261.71 165.961 261.71 164.995ZM275.293 161.848V172.999H270.807V153.967H275.094V157.201H275.317C275.755 156.136 276.453 155.289 277.411 154.661C278.378 154.033 279.572 153.72 280.992 153.72C282.306 153.72 283.45 154 284.424 154.562C285.407 155.124 286.167 155.937 286.704 157.003C287.249 158.069 287.518 159.361 287.51 160.881V172.999H283.024V161.575C283.024 160.303 282.694 159.308 282.033 158.589C281.381 157.87 280.476 157.511 279.32 157.511C278.535 157.511 277.837 157.685 277.226 158.031C276.623 158.37 276.148 158.862 275.801 159.506C275.462 160.15 275.293 160.931 275.293 161.848ZM299.132 173.334C297.637 173.334 296.299 172.949 295.117 172.181C293.936 171.413 293.003 170.298 292.317 168.836C291.632 167.374 291.289 165.598 291.289 163.508C291.289 161.393 291.636 159.609 292.329 158.155C293.032 156.693 293.977 155.591 295.167 154.847C296.356 154.095 297.682 153.72 299.144 153.72C300.259 153.72 301.176 153.91 301.895 154.29C302.614 154.661 303.183 155.111 303.605 155.64C304.026 156.16 304.352 156.652 304.584 157.115H304.769V147.624H309.267V172.999H304.856V170.001H304.584C304.352 170.463 304.018 170.955 303.58 171.475C303.142 171.987 302.564 172.425 301.845 172.788C301.127 173.152 300.222 173.334 299.132 173.334ZM300.383 169.654C301.333 169.654 302.143 169.398 302.812 168.885C303.481 168.365 303.989 167.642 304.336 166.717C304.683 165.792 304.856 164.714 304.856 163.483C304.856 162.252 304.683 161.183 304.336 160.274C303.997 159.365 303.493 158.659 302.824 158.155C302.163 157.651 301.35 157.4 300.383 157.4C299.384 157.4 298.549 157.66 297.88 158.18C297.211 158.701 296.707 159.419 296.369 160.336C296.03 161.253 295.861 162.302 295.861 163.483C295.861 164.673 296.03 165.734 296.369 166.668C296.716 167.593 297.224 168.324 297.893 168.861C298.57 169.389 299.4 169.654 300.383 169.654ZM319.523 173.383C318.317 173.383 317.231 173.168 316.265 172.739C315.306 172.301 314.546 171.657 313.985 170.806C313.431 169.955 313.155 168.906 313.155 167.659C313.155 166.585 313.353 165.697 313.749 164.995C314.146 164.293 314.687 163.731 315.373 163.31C316.058 162.888 316.83 162.57 317.69 162.356C318.557 162.133 319.453 161.972 320.378 161.872C321.493 161.757 322.398 161.654 323.092 161.563C323.786 161.464 324.289 161.315 324.603 161.117C324.926 160.91 325.087 160.592 325.087 160.163V160.088C325.087 159.155 324.81 158.432 324.256 157.92C323.703 157.408 322.906 157.152 321.865 157.152C320.766 157.152 319.895 157.391 319.251 157.87C318.615 158.349 318.185 158.915 317.962 159.568L313.774 158.973C314.105 157.817 314.65 156.85 315.41 156.074C316.17 155.289 317.099 154.703 318.198 154.314C319.296 153.918 320.51 153.72 321.84 153.72C322.757 153.72 323.67 153.827 324.579 154.042C325.487 154.256 326.317 154.612 327.069 155.107C327.821 155.595 328.424 156.26 328.878 157.102C329.341 157.945 329.572 158.998 329.572 160.262V172.999H325.26V170.385H325.111C324.839 170.913 324.455 171.409 323.959 171.871C323.472 172.326 322.856 172.693 322.113 172.974C321.378 173.247 320.515 173.383 319.523 173.383ZM320.688 170.087C321.588 170.087 322.369 169.91 323.03 169.554C323.691 169.191 324.199 168.712 324.554 168.117C324.917 167.522 325.099 166.874 325.099 166.172V163.929C324.959 164.045 324.719 164.152 324.38 164.251C324.05 164.351 323.678 164.437 323.265 164.512C322.852 164.586 322.443 164.652 322.039 164.71C321.634 164.768 321.283 164.817 320.985 164.859C320.316 164.949 319.717 165.098 319.189 165.305C318.66 165.511 318.243 165.8 317.937 166.172C317.632 166.535 317.479 167.006 317.479 167.584C317.479 168.41 317.78 169.034 318.383 169.455C318.986 169.877 319.755 170.087 320.688 170.087ZM343.585 153.967V157.437H332.645V153.967H343.585ZM335.346 149.408H339.831V167.275C339.831 167.878 339.922 168.34 340.104 168.662C340.294 168.976 340.542 169.191 340.847 169.307C341.153 169.422 341.491 169.48 341.863 169.48C342.144 169.48 342.4 169.46 342.631 169.418C342.871 169.377 343.053 169.34 343.177 169.307L343.932 172.813C343.693 172.896 343.35 172.987 342.904 173.086C342.466 173.185 341.929 173.243 341.293 173.259C340.17 173.292 339.158 173.123 338.258 172.751C337.357 172.371 336.643 171.785 336.114 170.992C335.594 170.199 335.338 169.208 335.346 168.018V149.408ZM347.337 172.999V153.967H351.822V172.999H347.337ZM349.592 151.266C348.881 151.266 348.27 151.031 347.758 150.56C347.246 150.081 346.99 149.507 346.99 148.838C346.99 148.16 347.246 147.586 347.758 147.116C348.27 146.636 348.881 146.397 349.592 146.397C350.31 146.397 350.922 146.636 351.425 147.116C351.938 147.586 352.194 148.16 352.194 148.838C352.194 149.507 351.938 150.081 351.425 150.56C350.922 151.031 350.31 151.266 349.592 151.266ZM364.736 173.371C362.877 173.371 361.267 172.962 359.904 172.144C358.541 171.326 357.483 170.182 356.732 168.712C355.988 167.242 355.617 165.523 355.617 163.558C355.617 161.592 355.988 159.869 356.732 158.391C357.483 156.912 358.541 155.764 359.904 154.946C361.267 154.128 362.877 153.72 364.736 153.72C366.594 153.72 368.205 154.128 369.568 154.946C370.931 155.764 371.984 156.912 372.728 158.391C373.479 159.869 373.855 161.592 373.855 163.558C373.855 165.523 373.479 167.242 372.728 168.712C371.984 170.182 370.931 171.326 369.568 172.144C368.205 172.962 366.594 173.371 364.736 173.371ZM364.761 169.778C365.768 169.778 366.611 169.501 367.288 168.947C367.966 168.386 368.469 167.634 368.8 166.692C369.139 165.751 369.308 164.702 369.308 163.545C369.308 162.38 369.139 161.327 368.8 160.386C368.469 159.436 367.966 158.68 367.288 158.118C366.611 157.556 365.768 157.276 364.761 157.276C363.728 157.276 362.869 157.556 362.183 158.118C361.506 158.68 360.998 159.436 360.659 160.386C360.329 161.327 360.164 162.38 360.164 163.545C360.164 164.702 360.329 165.751 360.659 166.692C360.998 167.634 361.506 168.386 362.183 168.947C362.869 169.501 363.728 169.778 364.761 169.778ZM382.147 161.848V172.999H377.662V153.967H381.949V157.201H382.172C382.61 156.136 383.308 155.289 384.266 154.661C385.233 154.033 386.426 153.72 387.847 153.72C389.16 153.72 390.304 154 391.279 154.562C392.262 155.124 393.022 155.937 393.559 157.003C394.104 158.069 394.373 159.361 394.364 160.881V172.999H389.879V161.575C389.879 160.303 389.549 159.308 388.888 158.589C388.235 157.87 387.331 157.511 386.174 157.511C385.39 157.511 384.692 157.685 384.08 158.031C383.477 158.37 383.002 158.862 382.655 159.506C382.317 160.15 382.147 160.931 382.147 161.848Z" fill="#2B2B2B"/>
<path d="M239.068 98.6591C238.811 97.7045 238.432 96.8636 237.932 96.1364C237.432 95.3939 236.818 94.7652 236.091 94.25C235.364 93.7348 234.53 93.3485 233.591 93.0909C232.652 92.8182 231.621 92.6818 230.5 92.6818C228.242 92.6818 226.288 93.2273 224.636 94.3182C223 95.4091 221.735 97 220.841 99.0909C219.947 101.167 219.5 103.689 219.5 106.659C219.5 109.644 219.932 112.189 220.795 114.295C221.659 116.402 222.909 118.008 224.545 119.114C226.182 120.22 228.167 120.773 230.5 120.773C232.561 120.773 234.303 120.439 235.727 119.773C237.167 119.091 238.258 118.129 239 116.886C239.742 115.644 240.114 114.182 240.114 112.5L242.205 112.75H230.886V104.545H250.955V110.705C250.955 114.871 250.068 118.439 248.295 121.409C246.538 124.379 244.114 126.659 241.023 128.25C237.947 129.841 234.409 130.636 230.409 130.636C225.97 130.636 222.068 129.674 218.705 127.75C215.341 125.826 212.72 123.083 210.841 119.523C208.962 115.947 208.023 111.705 208.023 106.795C208.023 102.977 208.591 99.5909 209.727 96.6364C210.864 93.6667 212.447 91.1515 214.477 89.0909C216.523 87.0303 218.886 85.4697 221.568 84.4091C224.265 83.3485 227.167 82.8182 230.273 82.8182C232.97 82.8182 235.477 83.2045 237.795 83.9773C240.129 84.75 242.189 85.8409 243.977 87.25C245.78 88.6591 247.242 90.3333 248.364 92.2727C249.485 94.2121 250.182 96.3409 250.455 98.6591H239.068ZM257.585 130V95.0909H268.381V101.455H268.744C269.381 99.1515 270.419 97.4394 271.858 96.3182C273.297 95.1818 274.972 94.6136 276.881 94.6136C277.396 94.6136 277.926 94.6515 278.472 94.7273C279.017 94.7879 279.525 94.8864 279.994 95.0227V104.682C279.464 104.5 278.767 104.356 277.903 104.25C277.055 104.144 276.297 104.091 275.631 104.091C274.313 104.091 273.123 104.386 272.062 104.977C271.017 105.553 270.191 106.364 269.585 107.409C268.994 108.439 268.699 109.652 268.699 111.045V130H257.585ZM293.051 130.591C290.824 130.591 288.847 130.22 287.119 129.477C285.407 128.72 284.051 127.583 283.051 126.068C282.066 124.538 281.574 122.621 281.574 120.318C281.574 118.379 281.915 116.742 282.597 115.409C283.278 114.076 284.218 112.992 285.415 112.159C286.612 111.326 287.991 110.697 289.551 110.273C291.112 109.833 292.778 109.538 294.551 109.386C296.536 109.205 298.134 109.015 299.347 108.818C300.559 108.606 301.438 108.311 301.983 107.932C302.544 107.538 302.824 106.985 302.824 106.273V106.159C302.824 104.992 302.422 104.091 301.619 103.455C300.816 102.818 299.733 102.5 298.369 102.5C296.9 102.5 295.718 102.818 294.824 103.455C293.93 104.091 293.362 104.97 293.119 106.091L282.869 105.727C283.172 103.606 283.953 101.712 285.21 100.045C286.483 98.3636 288.225 97.0455 290.438 96.0909C292.665 95.1212 295.339 94.6364 298.46 94.6364C300.688 94.6364 302.741 94.9015 304.619 95.4318C306.498 95.947 308.134 96.7045 309.528 97.7045C310.922 98.6894 311.998 99.9015 312.756 101.341C313.528 102.78 313.915 104.424 313.915 106.273V130H303.46V125.136H303.188C302.566 126.318 301.771 127.318 300.801 128.136C299.847 128.955 298.718 129.568 297.415 129.977C296.127 130.386 294.672 130.591 293.051 130.591ZM296.483 123.318C297.68 123.318 298.756 123.076 299.71 122.591C300.68 122.106 301.453 121.439 302.028 120.591C302.604 119.727 302.892 118.727 302.892 117.591V114.273C302.574 114.439 302.188 114.591 301.733 114.727C301.294 114.864 300.809 114.992 300.278 115.114C299.748 115.235 299.203 115.341 298.642 115.432C298.081 115.523 297.544 115.606 297.028 115.682C295.983 115.848 295.089 116.106 294.347 116.455C293.619 116.803 293.059 117.258 292.665 117.818C292.286 118.364 292.097 119.015 292.097 119.773C292.097 120.924 292.506 121.803 293.324 122.409C294.157 123.015 295.21 123.318 296.483 123.318ZM331.824 110.091V130H320.71V95.0909H331.278V101.5H331.665C332.438 99.3636 333.756 97.6894 335.619 96.4773C337.483 95.25 339.703 94.6364 342.278 94.6364C344.733 94.6364 346.862 95.1894 348.665 96.2955C350.483 97.3864 351.892 98.9167 352.892 100.886C353.907 102.841 354.407 105.129 354.392 107.75V130H343.278V109.932C343.294 107.992 342.801 106.477 341.801 105.386C340.816 104.295 339.445 103.75 337.688 103.75C336.521 103.75 335.491 104.008 334.597 104.523C333.718 105.023 333.036 105.742 332.551 106.682C332.081 107.621 331.839 108.758 331.824 110.091ZM374.023 130.5C371.447 130.5 369.106 129.833 367 128.5C364.894 127.167 363.212 125.167 361.955 122.5C360.697 119.833 360.068 116.523 360.068 112.568C360.068 108.462 360.72 105.083 362.023 102.432C363.326 99.7803 365.03 97.8182 367.136 96.5455C369.258 95.2727 371.538 94.6364 373.977 94.6364C375.811 94.6364 377.379 94.9545 378.682 95.5909C379.985 96.2121 381.061 97.0152 381.909 98C382.758 98.9848 383.402 100.008 383.841 101.068H384.068V83.4545H395.182V130H384.182V124.341H383.841C383.371 125.417 382.705 126.424 381.841 127.364C380.977 128.303 379.894 129.061 378.591 129.636C377.303 130.212 375.78 130.5 374.023 130.5ZM377.886 121.841C379.235 121.841 380.386 121.462 381.341 120.705C382.295 119.932 383.03 118.848 383.545 117.455C384.061 116.061 384.318 114.424 384.318 112.545C384.318 110.636 384.061 108.992 383.545 107.614C383.045 106.235 382.311 105.174 381.341 104.432C380.386 103.689 379.235 103.318 377.886 103.318C376.508 103.318 375.341 103.697 374.386 104.455C373.432 105.212 372.705 106.28 372.205 107.659C371.72 109.038 371.477 110.667 371.477 112.545C371.477 114.424 371.727 116.061 372.227 117.455C372.727 118.848 373.447 119.932 374.386 120.705C375.341 121.462 376.508 121.841 377.886 121.841ZM444.46 100.318H433.097C432.945 99.1515 432.634 98.0985 432.165 97.1591C431.695 96.2197 431.074 95.4167 430.301 94.75C429.528 94.0833 428.612 93.5758 427.551 93.2273C426.506 92.8636 425.347 92.6818 424.074 92.6818C421.816 92.6818 419.869 93.2348 418.233 94.3409C416.612 95.447 415.362 97.0455 414.483 99.1364C413.619 101.227 413.188 103.758 413.188 106.727C413.188 109.818 413.627 112.409 414.506 114.5C415.4 116.576 416.65 118.144 418.256 119.205C419.877 120.25 421.794 120.773 424.006 120.773C425.248 120.773 426.377 120.614 427.392 120.295C428.422 119.977 429.324 119.515 430.097 118.909C430.884 118.288 431.528 117.538 432.028 116.659C432.544 115.765 432.9 114.758 433.097 113.636L444.46 113.705C444.263 115.765 443.665 117.795 442.665 119.795C441.68 121.795 440.324 123.621 438.597 125.273C436.869 126.909 434.763 128.212 432.278 129.182C429.809 130.152 426.975 130.636 423.778 130.636C419.566 130.636 415.794 129.712 412.46 127.864C409.142 126 406.521 123.288 404.597 119.727C402.672 116.167 401.71 111.833 401.71 106.727C401.71 101.606 402.688 97.2652 404.642 93.7045C406.597 90.1439 409.241 87.4394 412.574 85.5909C415.907 83.7424 419.642 82.8182 423.778 82.8182C426.597 82.8182 429.203 83.2121 431.597 84C433.991 84.7727 436.097 85.9091 437.915 87.4091C439.733 88.8939 441.21 90.7197 442.347 92.8864C443.483 95.053 444.188 97.5303 444.46 100.318ZM467.193 130.659C463.527 130.659 460.375 129.909 457.739 128.409C455.117 126.894 453.095 124.788 451.67 122.091C450.261 119.379 449.557 116.235 449.557 112.659C449.557 109.068 450.261 105.924 451.67 103.227C453.095 100.515 455.117 98.4091 457.739 96.9091C460.375 95.3939 463.527 94.6364 467.193 94.6364C470.86 94.6364 474.004 95.3939 476.625 96.9091C479.261 98.4091 481.284 100.515 482.693 103.227C484.117 105.924 484.83 109.068 484.83 112.659C484.83 116.235 484.117 119.379 482.693 122.091C481.284 124.788 479.261 126.894 476.625 128.409C474.004 129.909 470.86 130.659 467.193 130.659ZM467.261 122.273C468.595 122.273 469.723 121.864 470.648 121.045C471.572 120.227 472.277 119.091 472.761 117.636C473.261 116.182 473.511 114.5 473.511 112.591C473.511 110.652 473.261 108.955 472.761 107.5C472.277 106.045 471.572 104.909 470.648 104.091C469.723 103.273 468.595 102.864 467.261 102.864C465.883 102.864 464.716 103.273 463.761 104.091C462.822 104.909 462.102 106.045 461.602 107.5C461.117 108.955 460.875 110.652 460.875 112.591C460.875 114.5 461.117 116.182 461.602 117.636C462.102 119.091 462.822 120.227 463.761 121.045C464.716 121.864 465.883 122.273 467.261 122.273ZM490.523 130V95.0909H501.318V101.455H501.682C502.318 99.1515 503.356 97.4394 504.795 96.3182C506.235 95.1818 507.909 94.6136 509.818 94.6136C510.333 94.6136 510.864 94.6515 511.409 94.7273C511.955 94.7879 512.462 94.8864 512.932 95.0227V104.682C512.402 104.5 511.705 104.356 510.841 104.25C509.992 104.144 509.235 104.091 508.568 104.091C507.25 104.091 506.061 104.386 505 104.977C503.955 105.553 503.129 106.364 502.523 107.409C501.932 108.439 501.636 109.652 501.636 111.045V130H490.523ZM531.966 130.659C528.314 130.659 525.163 129.939 522.511 128.5C519.875 127.045 517.845 124.977 516.42 122.295C515.011 119.598 514.307 116.394 514.307 112.682C514.307 109.076 515.019 105.924 516.443 103.227C517.867 100.515 519.875 98.4091 522.466 96.9091C525.057 95.3939 528.11 94.6364 531.625 94.6364C534.11 94.6364 536.383 95.0227 538.443 95.7955C540.504 96.5682 542.284 97.7121 543.784 99.2273C545.284 100.742 546.451 102.614 547.284 104.841C548.117 107.053 548.534 109.591 548.534 112.455V115.227H518.193V108.773H538.193C538.178 107.591 537.898 106.538 537.352 105.614C536.807 104.689 536.057 103.97 535.102 103.455C534.163 102.924 533.08 102.659 531.852 102.659C530.61 102.659 529.496 102.939 528.511 103.5C527.527 104.045 526.746 104.795 526.17 105.75C525.595 106.689 525.292 107.758 525.261 108.955V115.523C525.261 116.947 525.542 118.197 526.102 119.273C526.663 120.333 527.458 121.159 528.489 121.75C529.519 122.341 530.746 122.636 532.17 122.636C533.155 122.636 534.049 122.5 534.852 122.227C535.655 121.955 536.345 121.553 536.92 121.023C537.496 120.492 537.928 119.841 538.216 119.068L548.42 119.364C547.996 121.652 547.064 123.644 545.625 125.341C544.201 127.023 542.33 128.333 540.011 129.273C537.693 130.197 535.011 130.659 531.966 130.659Z" fill="#2B2B2B"/>
<defs>
<filter id="filter0_d_3509_6022" x="0" y="0" width="256" height="256" filterUnits="userSpaceOnUse" color-interpolation-filters="sRGB">
<feFlood flood-opacity="0" result="BackgroundImageFix"/>
<feColorMatrix in="SourceAlpha" type="matrix" values="0 0 0 0 0 0 0 0 0 0 0 0 0 0 0 0 0 0 127 0" result="hardAlpha"/>
<feOffset dy="4"/>
<feGaussianBlur stdDeviation="32"/>
<feComposite in2="hardAlpha" operator="out"/>
<feColorMatrix type="matrix" values="0 0 0 0 0 0 0 0 0 0 0 0 0 0 0 0 0 0 0.25 0"/>
<feBlend mode="normal" in2="BackgroundImageFix" result="effect1_dropShadow_3509_6022"/>
<feBlend mode="normal" in="SourceGraphic" in2="effect1_dropShadow_3509_6022" result="shape"/>
</filter>
<linearGradient id="paint0_linear_3509_6022" x1="128" y1="87.0244" x2="128" y2="188" gradientUnits="userSpaceOnUse">
<stop offset="0.270833" stop-color="#1CE68C"/>
<stop offset="0.9999" stop-color="#4A9B61"/>
<stop offset="1" stop-color="#5AE4A7"/>
</linearGradient>
</defs>
</svg>
